<svg xmlns="http://www.w3.org/2000/svg" width="640" height="480" viewBox="0 0 640 480">
  <title>bonafide-bangers</title>
  <rect width="640" height="480" style="fill: #27ffb0"/>
  <g>
    <path d="M33.67,12.58c15.9,0,28.45,5.58,28.45,22.1,0,8-3.7,14.84-11.54,18.63,11.54,1.89,19.71,7.89,19.71,21.89,0,14.32-11.09,24.21-30.24,24.21H5V12.58H33.67Zm-5.94,34c9.07,0,14-2.63,14-9.9,0-6.21-4.82-8.84-14-8.84H26.06V46.58h1.68Zm4.93,37.58c10,0,15.46-2.84,15.46-9.68,0-8-5.49-10.84-15.46-10.84H26.06V84.16h6.61Z" style="fill: #fff"/>
    <path d="M124.52,11C150.17,11,171,30.58,171,55.95S151.06,101,124.52,101c-27.33,0-46.59-19.68-46.59-45.05S99.1,11,124.52,11Zm0,70.84c16.8,0,23.74-12.95,23.74-25.89s-7.39-25.89-23.74-25.89S100.67,43,100.67,55.95,107.27,81.84,124.52,81.84Z" style="fill: #fff"/>
    <path d="M199,99.42H177.93V12.58H199l36.74,53.89h0.22V12.58H257V99.42H235.94L199.21,45.53H199V99.42Z" style="fill: #fff"/>
    <path d="M366.08,99.5H343.46l-6.83-17.37H301.46L294.62,99.5H272l37.3-86.84h19.49Zm-46.93-60h-0.22l-10.3,25.26h20.83Z" style="fill: #fff"/>
    <path d="M438.42,29.95H406.06V47.21H436V64.58h-29.9V99.42H385V12.58h53.42V29.95Z" style="fill: #fff"/>
    <path d="M473,99.42H451.94V12.58H473V99.42Z" style="fill: #fff"/>
    <path d="M518.1,12.58c25.31,0,46.59,18.1,46.59,43.37S543.53,99.42,518.1,99.42H491.33V12.58H518.1Zm-2.46,69.16c15.57,0,26.21-11.16,26.32-25.68s-10.64-25.79-26.32-25.79h-3.25V81.74h3.25Z" style="fill: #fff"/>
    <path d="M634,29.95H601.55V47.21h31.12V64.58H601.55V82.05H634V99.42H580V12.58h54V29.95Z" style="fill: #fff"/>
  </g>
  <g>
    <path d="M32.53,378.58c15.9,0,28.45,5.58,28.45,22.1,0,8-3.7,14.84-11.54,18.63,11.54,1.89,19.71,7.89,19.71,21.89,0,14.32-11.09,24.21-30.24,24.21H3.86V378.58H32.53Zm-5.94,34c9.07,0,14-2.63,14-9.89,0-6.21-4.82-8.84-14-8.84H24.91v18.74h1.68Zm4.93,37.58c10,0,15.46-2.84,15.46-9.68,0-8-5.49-10.84-15.46-10.84H24.91v20.53h6.61Z" style="fill: #fff"/>
    <path d="M174,465.42H151.38l-6.83-17.37H109.38l-6.83,17.37H79.92l37.3-86.84h19.49Zm-46.93-60h-0.22l-10.3,25.26h20.83Z" style="fill: #fff"/>
    <path d="M213,465.42H191.93V378.58H213l36.74,53.89h0.22V378.58H271v86.84H249.94l-36.74-53.89H213v53.89Z" style="fill: #fff"/>
    <path d="M380.7,435.63c-5,22-24.53,31.37-42.67,31.37a45,45,0,0,1-45-44.95c0-24.95,19-45.05,45-45.05,16.24,0,27.55,5.68,35.62,14.84l-13.78,14.21c-5.38-8.11-12.43-11.16-20.61-11.16-13,0-23.52,12.11-23.52,27.16,0,14.74,10.53,26.74,23.52,26.74,10.08,0,20-6.11,20-16.74H338V416.79H380.7v18.84Z" style="fill: #fff"/>
    <path d="M457.14,395.95H424.64v17.26h31.12v17.37H424.64v17.47h32.49v17.37h-54V378.58h54v17.37Z" style="fill: #fff"/>
    <path d="M516,378.58c17.14,0,30.13,8.74,30.13,25.79,0,13.05-7.62,21.79-18.93,25.16L559,465.42H532.28l-28.22-34.32v34.32H483V378.58h33Zm-9.52,38.53c8,0,17.47-.53,17.47-11.37s-9.52-11.37-17.47-11.37h-2.46v22.74h2.46Z" style="fill: #fff"/>
    <path d="M632.86,385.21L624.35,401s-9.18-6-18.7-6c-7.17,0-11,3.05-11,7.79s8.74,8.32,19.26,12.53c10.3,4.11,21.62,12.32,21.62,23.68,0,20.74-16.8,28-34.83,28C579.1,467,566,455.53,566,455.53l10.53-16.63s12.32,9.79,22.62,9.79c4.59,0,13.33-.42,13.33-8.53,0-6.32-9.86-9.16-20.83-14.32s-17.58-13.26-17.58-22.32c0-16.21,15.23-26.53,30.13-26.53A54.74,54.74,0,0,1,632.86,385.21Z" style="fill: #fff"/>
  </g>
  <g>
    <g>
      <circle cx="316" cy="377.5" r="57.5" style="fill: #6a36f7;stroke: #000;stroke-miterlimit: 10;stroke-width: 4px"/>
      <ellipse cx="316" cy="382" rx="100" ry="80" style="fill: #6a36f7;stroke: #000;stroke-miterlimit: 10;stroke-width: 4px"/>
      <g>
        <path d="M282,298h24a10,10,0,0,1,10,10v38a20,20,0,0,1-20,20h-4a20,20,0,0,1-20-20V308A10,10,0,0,1,282,298Z" style="fill: #fff;stroke: #000;stroke-miterlimit: 10;stroke-width: 4px"/>
        <path d="M326,298h24a10,10,0,0,1,10,10v38a20,20,0,0,1-20,20h-4a20,20,0,0,1-20-20V308A10,10,0,0,1,326,298Z" style="fill: #fff;stroke: #000;stroke-miterlimit: 10;stroke-width: 4px"/>
        <path d="M370,303h20a10,10,0,0,1,10,10v30a20,20,0,0,1-20,20h0a20,20,0,0,1-20-20V313a10,10,0,0,1,10-10Z" style="fill: #fff;stroke: #000;stroke-miterlimit: 10;stroke-width: 4px"/>
        <path d="M242,303h20a10,10,0,0,1,10,10v30a20,20,0,0,1-20,20h0a20,20,0,0,1-20-20V313A10,10,0,0,1,242,303Z" style="fill: #fff;stroke: #000;stroke-miterlimit: 10;stroke-width: 4px"/>
        <path d="M409,309h18a9,9,0,0,1,9,9v29a18,18,0,0,1-18,18h0a18,18,0,0,1-18-18V318a9,9,0,0,1,9-9Z" style="fill: #fff;stroke: #000;stroke-miterlimit: 10;stroke-width: 4px"/>
        <path d="M205,309h18a9,9,0,0,1,9,9v29a18,18,0,0,1-18,18h0a18,18,0,0,1-18-18V318a9,9,0,0,1,9-9Z" style="fill: #fff;stroke: #000;stroke-miterlimit: 10;stroke-width: 4px"/>
      </g>
      <g>
        <path d="M336.42,391.68a71.85,71.85,0,0,0-14.77,1.53c20.9,5,37.2,18.14,42.81,34.63q13.66-1.42,26.54-3.42C384.71,405.58,362.66,391.68,336.42,391.68Z" style="fill: #ff5d77;stroke: #000;stroke-miterlimit: 10;stroke-width: 4px"/>
        <path d="M321.64,393.2a81,81,0,0,0-18.88-2.2c-29.68,0-54.63,15.72-61.76,37,12.69,1.28,25.85,2.16,39.37,2.62Q291,431,301.89,431a608.46,608.46,0,0,0,62.57-3.17C358.85,411.34,342.55,398.22,321.64,393.2Z" style="fill: #ff5d77;stroke: #000;stroke-miterlimit: 10;stroke-width: 4px"/>
      </g>
      <g>
        <path d="M395,401h22a7,7,0,0,1,7,7v19a14,14,0,0,1-14,14h-8a14,14,0,0,1-14-14V408a7,7,0,0,1,7-7Z" transform="translate(812 842) rotate(180)" style="fill: #fff;stroke: #000;stroke-miterlimit: 10;stroke-width: 4px"/>
        <path d="M288.12,422h21.76a7.12,7.12,0,0,1,7.12,7.12v34.65A14.24,14.24,0,0,1,302.76,478h-7.53A14.24,14.24,0,0,1,281,463.76V429.12a7.12,7.12,0,0,1,7.12-7.12Z" transform="translate(598 900) rotate(-180)" style="fill: #fff;stroke: #000;stroke-miterlimit: 10;stroke-width: 4px"/>
        <path d="M323.12,422h21.76a7.12,7.12,0,0,1,7.12,7.12v34.65A14.24,14.24,0,0,1,337.76,478h-7.53A14.24,14.24,0,0,1,316,463.76V429.12a7.12,7.12,0,0,1,7.12-7.12Z" transform="translate(668 900) rotate(-180)" style="fill: #fff;stroke: #000;stroke-miterlimit: 10;stroke-width: 4px"/>
        <path d="M386,414h14a7,7,0,0,1,7,7v19a14,14,0,0,1-14,14h0a14,14,0,0,1-14-14V421A7,7,0,0,1,386,414Z" transform="translate(786 868) rotate(-180)" style="fill: #fff;stroke: #000;stroke-miterlimit: 10;stroke-width: 4px"/>
        <path d="M359.12,420h17.76a7.12,7.12,0,0,1,7.12,7.12v28.65A14.24,14.24,0,0,1,369.76,470h-3.53A14.24,14.24,0,0,1,352,455.76V427.12a7.12,7.12,0,0,1,7.12-7.12Z" transform="translate(736 890) rotate(-180)" style="fill: #fff;stroke: #000;stroke-miterlimit: 10;stroke-width: 4px"/>
        <path d="M214,401h22a7,7,0,0,1,7,7v19a14,14,0,0,1-14,14h-8a14,14,0,0,1-14-14V408A7,7,0,0,1,214,401Z" transform="translate(450 842) rotate(180)" style="fill: #fff;stroke: #000;stroke-miterlimit: 10;stroke-width: 4px"/>
        <path d="M232,414h14a7,7,0,0,1,7,7v19a14,14,0,0,1-14,14h0a14,14,0,0,1-14-14V421a7,7,0,0,1,7-7Z" transform="translate(478 868) rotate(-180)" style="fill: #fff;stroke: #000;stroke-miterlimit: 10;stroke-width: 4px"/>
        <path d="M256.12,420h17.76a7.12,7.12,0,0,1,7.12,7.12v28.65A14.24,14.24,0,0,1,266.76,470h-3.53A14.24,14.24,0,0,1,249,455.76V427.12a7.12,7.12,0,0,1,7.12-7.12Z" transform="translate(530 890) rotate(-180)" style="fill: #fff;stroke: #000;stroke-miterlimit: 10;stroke-width: 4px"/>
      </g>
    </g>
    <g>
      <g>
        <path d="M342.37,47.72L320.63,17.28a2,2,0,0,0-3.25,0L295.63,47.72a2,2,0,0,1-3.25,0L272.62,20.07A2,2,0,0,0,269,21.24V93a2,2,0,0,0,2,2h96a2,2,0,0,0,2-2V21.24a2,2,0,0,0-3.62-1.16L345.63,47.72A2,2,0,0,1,342.37,47.72Z" style="fill: #ebff4e;stroke: #000;stroke-miterlimit: 10;stroke-width: 4px"/>
        <circle cx="369" cy="17" r="8" style="fill: #fff;stroke: #000;stroke-miterlimit: 10;stroke-width: 4px"/>
        <circle cx="269" cy="17" r="8" style="fill: #fff;stroke: #000;stroke-miterlimit: 10;stroke-width: 4px"/>
        <circle cx="319" cy="10" r="8" style="fill: #fff;stroke: #000;stroke-miterlimit: 10;stroke-width: 4px"/>
      </g>
      <rect x="257" y="84" width="124" height="20" rx="10" ry="10" style="fill: #6a36f7;stroke: #000;stroke-miterlimit: 10;stroke-width: 4px"/>
    </g>
    <g>
      <circle cx="287" cy="244" r="20" style="fill: #ff5d77;stroke: #000;stroke-miterlimit: 10;stroke-width: 4px"/>
      <circle cx="347" cy="244" r="20" style="fill: #ff5d77;stroke: #000;stroke-miterlimit: 10;stroke-width: 4px"/>
      <rect x="287" y="150" width="60" height="120" rx="30" ry="30" style="fill: #ff5d77;stroke: #000;stroke-miterlimit: 10;stroke-width: 4px"/>
    </g>
    <g>
      <g>
        <path d="M184,213a42,42,0,1,1,42-42A42,42,0,0,1,184,213Z" style="fill: #fff"/>
        <path d="M184,131a40,40,0,1,1-40,40,40,40,0,0,1,40-40m0-4a44,44,0,1,0,44,44,44,44,0,0,0-44-44h0Z"/>
      </g>
      <g>
        <path d="M195,180a20,20,0,1,1,20-20A20,20,0,0,1,195,180Z" style="fill: #6a36f7"/>
        <path d="M195,142a18,18,0,1,1-18,18,18,18,0,0,1,18-18m0-4a22,22,0,1,0,22,22,22,22,0,0,0-22-22h0Z"/>
      </g>
      <circle cx="196" cy="159" r="8"/>
    </g>
    <g>
      <g>
        <path d="M452,213a42,42,0,1,1,42-42A42,42,0,0,1,452,213Z" style="fill: #fff"/>
        <path d="M452,131a40,40,0,1,1-40,40,40,40,0,0,1,40-40m0-4a44,44,0,1,0,44,44,44,44,0,0,0-44-44h0Z"/>
      </g>
      <g>
        <g>
          <path d="M437,198a20,20,0,1,1,20-20A20,20,0,0,1,437,198Z" style="fill: #6a36f7"/>
          <path d="M437,160a18,18,0,1,1-18,18,18,18,0,0,1,18-18m0-4a22,22,0,1,0,22,22,22,22,0,0,0-22-22h0Z"/>
        </g>
        <circle cx="436" cy="178" r="8"/>
      </g>
    </g>
  </g>
</svg>
